<svg id="favicon" xmlns="http://www.w3.org/2000/svg" viewBox="0 0 50.31 39.25"><title>im-favicon</title><path d="M92.17,45.4c0,2.76,0,5.53,0,8.29a.71.71,0,0,1-.57.7,15.52,15.52,0,0,1-5.31.14,3.19,3.19,0,0,1-2.61-2.79,11.27,11.27,0,0,1-.1-1.54c0-4.58.08-9.18,0-13.76a5,5,0,0,1,2.82-5c4.67-2.5,9.5-3.2,14.53-1.17a5.29,5.29,0,0,1,1.37.78.84.84,0,0,0,1.13,0,13.87,13.87,0,0,1,11.92-1.18,8,8,0,0,1,5.55,7.72c.06,5.38,0,10.76,0,16.14,0,.32,0,.53-.42.61a15.42,15.42,0,0,1-5.16.2,3.09,3.09,0,0,1-2.94-3.37c0-3.24,0-6.48,0-9.73,0-.89,0-1.78,0-2.66a2.87,2.87,0,0,0-3.63-3,3.88,3.88,0,0,0-.49.11c-1.57.41-1.73.62-1.73,2.22q0,7.71,0,15.42a.85.85,0,0,1-.67.83,18.31,18.31,0,0,1-4.31.25A3.8,3.8,0,0,1,98,50.93C98,49,98,47,98,45.1V39.19c0-2.71-2.06-4.11-4.62-3.14a3.24,3.24,0,0,1-.33.13,1.11,1.11,0,0,0-.88,1.29c0,2.65,0,5.29,0,7.93Z" transform="translate(-70.6 -15.54)"/><path d="M82.09,48.34l-.45,5c-.2.39.19,1-.48,1.07a17.42,17.42,0,0,1-5,.3A3.92,3.92,0,0,1,72.72,51c0-.86,0-1.72,0-2.59,0-6,0-12,0-18,0-.67.13-.94.83-1a19.3,19.3,0,0,1,4.68-.23c2.15.23,3.3,1.35,3.34,3.54.06,3.1,0,6.21,0,9.32A24.52,24.52,0,0,0,82.09,48.34Z" transform="translate(-70.6 -15.54)"/><path d="M76.39,26.71a5.59,5.59,0,1,1,0-11.17,5.45,5.45,0,0,1,5.81,5.62A5.43,5.43,0,0,1,76.39,26.71Z" transform="translate(-70.6 -15.54)"/></svg>