<svg id="logo-negativo" xmlns="http://www.w3.org/2000/svg" viewBox="0 0 946.45 240.91"><defs><style>.cls-1{fill:#fff;}.cls-2{fill:#fdfdfd;}.cls-3{fill:#fefefe;}.cls-4{fill:#010101;}.cls-5{fill:#b5b5b5;}</style></defs><title>logo-white</title><g id="logo"><path class="cls-1" d="M330.68,632.05C360,632.1,384,656,383.85,685.1s-24.07,52.79-53.31,52.73-53.26-23.92-53.18-53.05S301.45,632,330.68,632.05Z" transform="translate(-165.66 -496.93)"/><path d="M330.62,644.28h27.7a8,8,0,0,1,2,.13,2.83,2.83,0,0,1,2.3,2.86,2.65,2.65,0,0,1-2.07,2.81c-.91.22-1.37.47-1.37,1.61q.06,27.22,0,54.47c0,3.23,0,6.47,0,9.71,0,2.22-.28,2.49-2.49,2.49H304.53c-2.2,0-2.45-.26-2.46-2.52q0-31.74,0-63.48c0-1.23,0-2.1-1.56-2.37a2.48,2.48,0,0,1-1.89-2.57,2.85,2.85,0,0,1,1.65-2.77,5.06,5.06,0,0,1,2.46-.38Z" transform="translate(-165.66 -496.93)"/><path d="M359,725.48h-57.2c2.59-1.47,4.44-3.59,7.11-3.61,14.5-.11,29,0,43.5,0a2.4,2.4,0,0,1,1.05.11c1.91,1.05,3.79,2.14,5.68,3.21Z" transform="translate(-165.66 -496.93)"/><path class="cls-1" d="M355.75,682.59c0,10.19,0,20.38,0,30.57,0,1.39-.31,1.79-1.75,1.79q-23.38-.09-46.76,0c-1.54,0-1.83-.46-1.82-1.91q.07-30.48,0-61c0-1.41.35-1.77,1.76-1.77q23.39.09,46.76,0c1.32,0,1.83.2,1.82,1.71C355.71,662.21,355.75,672.4,355.75,682.59Z" transform="translate(-165.66 -496.93)"/><path d="M308.94,674.88c0-6.35,0-12.7,0-19,0-1.56.49-2.13,2-2.11q7.91.09,15.82,0c1.54,0,2.09.52,2.08,2.1q-.08,19,0,38.1c0,1.57-.51,2.11-2.07,2.09-5.27-.06-10.54-.07-15.82,0-1.55,0-2.08-.5-2.06-2.08C309,687.58,308.94,681.23,308.94,674.88Z" transform="translate(-165.66 -496.93)"/><path d="M332.39,674.83c0-6.29.05-12.58,0-18.87,0-1.63.46-2.26,2.13-2.24,5.27.07,10.54,0,15.82,0,1.43,0,2,.44,2,2q-.06,19.14,0,38.28c0,1.44-.41,2.06-1.94,2q-8-.09-16,0c-1.6,0-2-.6-2-2.13C332.43,687.53,332.39,681.18,332.39,674.83Z" transform="translate(-165.66 -496.93)"/><path d="M330.41,711.51c-6.41,0-12.82-.06-19.23,0-1.75,0-2.32-.55-2.24-2.29.13-2.62.09-5.27,0-7.9,0-1.35.39-2,1.83-2q19.86,0,39.71,0c1.32,0,1.81.53,1.78,1.83,0,2.82-.06,5.64,0,8.45,0,1.43-.55,1.87-1.92,1.87C343.71,711.48,337.06,711.51,330.41,711.51Z" transform="translate(-165.66 -496.93)"/><path class="cls-2" d="M324.6,674.88c0,2.39,0,4.78,0,7.18,0,1.22-.35,2.19-1.74,2.22s-1.88-.91-1.88-2.13q0-7.27,0-14.54c0-1.22.51-2.16,1.88-2.13s1.75,1,1.74,2.22C324.59,670.09,324.6,672.48,324.6,674.88Z" transform="translate(-165.66 -496.93)"/><path class="cls-3" d="M336.64,674.74c0-2.33,0-4.67,0-7,0-1.22.31-2.21,1.71-2.26s1.92,1,1.92,2.26q0,7.18,0,14.37c0,1.21-.45,2.17-1.84,2.17s-1.8-.93-1.79-2.18C336.65,679.65,336.64,677.19,336.64,674.74Z" transform="translate(-165.66 -496.93)"/><path class="cls-3" d="M330.49,706.15a20.11,20.11,0,0,1-2.33,0,1.55,1.55,0,0,1-1.49-1.71,1.48,1.48,0,0,1,1.41-1.57,23.1,23.1,0,0,1,5.19,0,1.45,1.45,0,0,1,1.3,1.65,1.5,1.5,0,0,1-1.39,1.6,26.8,26.8,0,0,1-2.69,0Z" transform="translate(-165.66 -496.93)"/><path class="cls-1" d="M218.5,737.63c-29.07,0-52.86-23.63-52.84-52.52s23.77-52.37,52.79-52.39,52.87,23.63,52.83,52.52S247.53,737.61,218.5,737.63Z" transform="translate(-165.66 -496.93)"/><path d="M248.77,695.76c-8.43,4.61-16.64,9.12-24.87,13.58a1.49,1.49,0,0,0-.83,1.57c0,2.08,0,4.16,0,6.24a4.54,4.54,0,0,1-2.28,4.18,30.67,30.67,0,0,1-4.26,2.2c-3.24,1.26-9.41-3-9.46-6.5q-.09-6.51,0-13a1.94,1.94,0,0,0-1.4-2.22c-5.55-2.24-11.07-4.58-16.55-7-1.32-.57-1.44-.17-1.42,1,0,3,0,6.06,0,9.09a4.73,4.73,0,0,1-3,4.8,1.42,1.42,0,0,0-.33.13c-3.68,3.09-7.07,1.77-10.46-.6a4.59,4.59,0,0,1-2.23-4q0-11.6,0-23.19c0-7.44,4.39-11.28,11.81-13.23a36,36,0,0,1,9.54-1,4.17,4.17,0,0,0,1.57-.2c4.81-1.85,9.62-3.72,14.45-5.51a2,2,0,0,0,1.55-2,9.68,9.68,0,0,1,2.75-5.84c5.47-5.84,12.38-7.8,20.07-7.15,7.22.61,14.18,2.4,20.33,6.44,7,4.6,11,11,11.07,19.54,0,7.49-.05,15,0,22.47,0,2.42-1.11,3.76-2.95,5.23-4.08,3.25-7.55,1.73-11.13-.66C249.34,699.15,248.82,697.69,248.77,695.76Z" transform="translate(-165.66 -496.93)"/><path class="cls-1" d="M223.25,692.72c-.55-13.32-9.31-19.3-20.27-23.47,3.32-1.29,6.63-2.55,9.91-3.88.76-.31,1.28.1,1.85.31,8.33,3.09,16.65,6.22,25,9.33.56.21,1.14.35,1.68.58.82.35,1.6.38,1.93-.56s-.52-1.3-1.25-1.58c-8.27-3.08-16.55-6.15-24.81-9.27-.88-.34-2.26-.25-2.45-1.38a5.34,5.34,0,0,1,.93-4.41,18.11,18.11,0,0,1,8.58-6.1c4.63-1.49,9.27-1.06,13.9,0,5.3,1.17,10.47,2.71,14.84,6.11a17.93,17.93,0,0,1,7.35,14.9c0,7.19,0,14.39,0,21.58,0,2.27-2.6,3.71-4.72,2.86-1.86-.75-2.62-1.81-2.37-3.85a48.05,48.05,0,0,0,.05-5.68l-30.25,16.49c0-2.22,0-4.21,0-6.18,0-.92.74-1,1.26-1.28l27-14.48.32-.15c1.87-1,2.49-2.21,1.82-3.49s-2-1.46-3.88-.48l-15.21,8.15Z" transform="translate(-165.66 -496.93)"/><path class="cls-1" d="M183.22,687.51c0,5.64,0,11,0,16.31,0,2.16-2.71,3.68-4.72,2.84a3.4,3.4,0,0,1-2.35-3.76c.15-6.76,0-13.54.13-20.3.1-5.32,1.88-7.8,7-9.1,11.34-2.87,21.68-.88,30.46,7.17a14.51,14.51,0,0,1,4.87,11.25c-.07,8,0,16.05,0,24.07,0,1.87-2.61,3.41-4.39,2.74a3.56,3.56,0,0,1-2.68-4.05c.21-4.62,0-9.26,0-13.9,0-.71.09-1.36-.81-1.74C201.63,695.26,192.57,691.44,183.22,687.51Z" transform="translate(-165.66 -496.93)"/><path d="M199.8,690.14a2.1,2.1,0,0,1-1.51-.35c-2.82-2.43-5.31-5.1-6.27-8.83-.38-1.46-.68-3.09.81-4.05s3.15-.27,4.38.83a4.39,4.39,0,0,0,3,1.28c2.87.1,5.51,3.5,5.32,6.54C205.4,688.28,203.07,690.14,199.8,690.14Z" transform="translate(-165.66 -496.93)"/><path class="cls-1" d="M203.24,684.39a2.69,2.69,0,0,1-2,2.85c-1.38.54-2.65.76-3.81-.67-1.41-1.76-3-3.34-3.28-5.74-.06-.62-.28-1.34.44-1.76s1.37.07,1.95.45a5.9,5.9,0,0,1,1.61,2.09c.28.49.45.83,1.18.4C201.39,680.8,203.2,681.88,203.24,684.39Z" transform="translate(-165.66 -496.93)"/><path class="cls-1" d="M274.48,641.28c-29.09-.06-52.82-23.73-52.73-52.62s23.9-52.35,52.89-52.29S327.46,560.1,327.36,589,303.48,641.34,274.48,641.28Z" transform="translate(-165.66 -496.93)"/><path class="cls-4" d="M274.38,617.37H237.1c-4.48,0-6.42-1.93-6.42-6.38s0-8.92,0-13.38a7.82,7.82,0,0,1,.47-3.15c.16-.4.34-.75.06-1.17a3.68,3.68,0,0,1,.18-4c3.06-5.36,6.1-10.74,9.34-16,.77-1.24,1.26-2,.08-3.15a5.48,5.48,0,0,1-1.3-3.26,52.13,52.13,0,0,1-.06-10.67c.44-4.65,3.86-7.72,8.54-8,1.06-.06,2.14,0,3.21,0h47.63c4.78,0,8.13,2.35,9.38,6.45a8.53,8.53,0,0,1,.28,2.46c0,2.68,0,5.35,0,8a8.34,8.34,0,0,1-2,5.75c-.27.33-.79.58-.23,1.15,2.38,2.4,3.64,5.54,5.35,8.38,1.31,2.19,2.55,4.42,3.77,6.66,1,1.77,2.13,3.49,1.51,5.69a.67.67,0,0,0,.08.5c1.48,1.94,1.05,4.2,1.07,6.37,0,4,0,8,0,11.95,0,3.74-2.12,5.82-5.89,5.83Z" transform="translate(-165.66 -496.93)"/><path class="cls-1" d="M274.38,613.15c-12.43,0-24.85,0-37.28,0-1.74,0-2.25-.54-2.21-2.24.1-4.52.08-9,0-13.56,0-1.55.51-2.1,2.06-2.1q37.46,0,74.92,0c1.57,0,2.05.61,2,2.13-.07,4.58-.08,9.16,0,13.73,0,1.58-.51,2-2.06,2C299.35,613.13,286.87,613.15,274.38,613.15Z" transform="translate(-165.66 -496.93)"/><path class="cls-1" d="M312.84,591H235.33a15.56,15.56,0,0,1,2-3.63c2-3.62,4.1-7.22,6.17-10.82,1.05-1.84,2.37-2.91,4.77-2.48a21.66,21.66,0,0,0,5.69,0,18.25,18.25,0,0,1,10.58,2.47c9.25,5.09,19.23,6.91,29.64,7.06,4.35.07,8.67-.09,13-.42.65,0,1.25-.18,1.67.59C310.05,586.13,311.35,588.38,312.84,591Z" transform="translate(-165.66 -496.93)"/><path class="cls-1" d="M304.09,558.9c-2.33-2.14-5.09-1.66-7.78-1.33a41.57,41.57,0,0,1-12.4-.07,13.22,13.22,0,0,0-4.26-.15c-2.64.39-3.94,2-3.76,4.66.11,1.71.69,3.35.52,5.12-.24,2.59-.16,2.59-2.8,2.26.15-2.89-.65-5.72-.34-8.66.22-2-1.29-3.25-3.38-3.71a14.49,14.49,0,0,0-5,.09,45.27,45.27,0,0,1-13.65-.19,9.33,9.33,0,0,0-2.3-.12c-3.51.26-5,2.09-4.43,5.57a15.5,15.5,0,0,1,.2,5.9,3.86,3.86,0,0,1-1.24-3.1V558c0-4.06,1.63-5.67,5.76-5.67h25.31c8.08,0,16.16,0,24.24,0C303,552.38,304.75,554.55,304.09,558.9Z" transform="translate(-165.66 -496.93)"/><path class="cls-1" d="M280.66,566.27a11.73,11.73,0,0,0-.29-2.83c-.47-2.11-.29-2.38,1.79-1.92a48.67,48.67,0,0,0,8.86.63,55.08,55.08,0,0,0,7.8-.65c1.34-.16,2.08.11,1.64,1.68a9.08,9.08,0,0,0,.39,4.56c.21.94,0,1.56-1.08,1.45-5.46-.5-10.92.38-16.38,0C280.61,569,280.61,569,280.66,566.27Z" transform="translate(-165.66 -496.93)"/><path class="cls-1" d="M248.56,561.16a4.74,4.74,0,0,1,2.5-.08,44.33,44.33,0,0,0,15.37,0,17.34,17.34,0,0,1,1.77-.11c.62,0,1.09.13.9.89a11.56,11.56,0,0,0,.28,5.45c.19.84,0,1.52-1,1.4-5.91-.71-11.84.66-17.76-.21-1.2-.18-1.66-.52-1.46-1.77C249.48,564.87,248.88,563,248.56,561.16Z" transform="translate(-165.66 -496.93)"/><path class="cls-1" d="M305.93,579.14c-12.42.89-24.52.57-35.95-5h28.95C303.21,574.09,304.19,574.77,305.93,579.14Z" transform="translate(-165.66 -496.93)"/><path class="cls-5" d="M784.29,664.24c-20.43.07-34.32,14.52-34.46,35.7-.21,22,13.41,36.34,34.53,36.47s35-14.1,35-36C819.37,678.83,805.13,664.1,784.29,664.24Zm13,48.28c-2.64,5.76-7,9-13.48,8.68-6-.28-10.07-3.54-12.16-9.1a32.6,32.6,0,0,1-1.39-18.76c1.67-7.85,5.63-13.61,14.52-13.82,7.85-.14,13.06,5.7,14.1,15.14.21,1.88.14,3.76.21,5.08C799,704.46,799.08,708.63,797.28,712.52Z" transform="translate(-165.66 -496.93)"/><path class="cls-5" d="M718.43,668.13c-10.07-2.71-20.22-2.09-30.36-.14-5.9,1.11-8.61,4.31-8.4,10.63.34,14.38.48,28.83-.07,43.14-.42,9.51,4.23,13.47,12.64,14.65,3.47.49,7,.63,10.91,1,3.75-.35,7.92-.35,12-1,16.18-2.78,26.32-14.94,27.16-32.38C743.3,685.84,734.48,672.5,718.43,668.13Zm3.4,37.79c-.83,7.92-3.75,14.24-12.57,15.7-6.11,1-10.77.41-9.73-7.85.56-4,.07-8.27.07-12.37,0-3.54,0-7,.07-10.56,0-9.79,2.64-11.67,11.88-8.26C719.47,685.49,723.15,693.83,721.83,705.92Z" transform="translate(-165.66 -496.93)"/><path class="cls-5" d="M962.2,725.44c-4.17-15.08-9-29.94-12.79-45.16-2.36-9.72-8.47-12.71-18.41-12.64-5.21.9-11.88.28-14.38,8.41-5,16.18-10.56,32.16-15.63,48.28-1.8,5.62-1.87,11.11,5.84,12.36,6.32,1,12.29,1.53,13.41-7.5.41-2.92,0-7.71,5.48-7.36,7.51.41,16.54-3.48,18.9,9.44,1.39,7.85,9.31,6.46,15.21,5C967,734.47,963.31,729.33,962.2,725.44Zm-26.26-19.38a11.54,11.54,0,0,1-8.34,0c-3.75-1.81-.49-5,0-7.37.83-4,2.57-7.71,4.65-13.75,1.81,6,3.27,9.86,4.1,13.82C936.84,701.19,939.62,704.53,935.94,706.06Z" transform="translate(-165.66 -496.93)"/><path class="cls-5" d="M871.69,704c0-9.93.42-19.88,0-29.79-.26-5.91,2.3-8.21,7.61-8.41,5.56-.2,11,.94,11.08,7.69.36,18.58.17,37.17.14,55.76,0,4.23-3.17,5.2-6.5,5.55-7.08.73-14.43,1.7-18.49-6.24-5.38-10.51-10.52-21.15-17-34.32,0,12.69-.21,22.9.1,33.11.14,5-.79,8.05-6.54,7.9-5.21-.13-11.54.47-11.75-6.6-.56-18.57-.46-37.16-.11-55.74.09-5,5-6.42,9.18-6.9,6.3-.73,12.45.14,15.65,6.63,5.09,10.33,9.84,20.82,14.74,31.24C870.34,704.56,870.94,705.46,871.69,704Z" transform="translate(-165.66 -496.93)"/><path class="cls-5" d="M1077.24,664.17c-20.5.21-34.32,14.52-34.39,35.77-.14,22,13.48,36.41,34.52,36.47,21.19.07,34.74-14,34.74-36C1112.11,678.62,1098.08,664,1077.24,664.17Zm13,48.21c-2,5.42-6.26,8.75-12.37,8.82-6.53.14-11-3.12-13.2-9a32.19,32.19,0,0,1-.07-23.34c2.09-5.84,6.67-9.38,13.13-9.31s10.91,3.54,12.92,9.52c1.18,3.54,1.46,7.43,2.23,11.53C1092.1,704.39,1091.68,708.63,1090.23,712.38Z" transform="translate(-165.66 -496.93)"/><path class="cls-5" d="M1010.48,667.71c-9.52-2.08-19-1.6-28.56.14-5.69,1-8.75,3.75-8.54,10.35.49,14.38.76,28.83,0,43.14-.56,10,4,14.1,12.92,15.14,3.47.35,7,.56,10.7.84,3.61-.28,7.5-.28,11.25-.91,16.74-2.7,26.75-14.86,27.37-33C1036.32,684.59,1027.08,671.46,1010.48,667.71Zm5.41,36.19c-.76,11.12-5.76,17.16-14.79,18-5.56.48-9.38-.28-8.41-7.44.56-4.1.07-8.26.07-12.43s.42-8.34-.07-12.44c-1.11-9,3.82-9.24,10.35-7.57C1011.8,684.24,1016.66,692.44,1015.89,703.9Z" transform="translate(-165.66 -496.93)"/><path class="cls-5" d="M623.55,698.26c0-7.68.38-15.38-.13-23-.42-6.4,1.63-9.5,8.26-9.59,6.8-.1,11.28,2.16,11.32,9.67.08,11.83.42,23.68-.08,35.49-.3,6.91,1.34,10.31,8.89,9.24,3.45-.5,7,.14,10.54-.13,5.41-.42,7.56,2.13,7.64,7.25s-2,8-7.23,8c-9.59,0-19.19.1-28.78,0-7.1-.09-10.39-4.12-10.42-11C623.52,715.53,623.55,706.89,623.55,698.26Z" transform="translate(-165.66 -496.93)"/><path class="cls-5" d="M612.56,725.58c-4.17-15.08-8.89-29.94-12.78-45.09-2.36-9.51-8.34-13-19-12.85-4.23,1.46-11.32-.28-13.82,8.27-4.86,16.18-10.42,32.16-15.7,48.21-1.88,5.83-2,11,5.56,12.5,6.25,1.18,12.29,1.67,13.68-7.15.42-2.78-.42-7.16,4.24-7.5,5.07-.28,10.35-.7,15.28.2,4.17.77,2.92,5.84,4.24,8.9,3.33,7.5,9.45,6.66,15.49,5.28C616.87,734.75,613.67,729.54,612.56,725.58Zm-26.33-19.45a12.91,12.91,0,0,1-8.4-.07c-3.13-1.39-.84-4.52-.28-6.74,1-3.89,2.64-7.71,4.3-12.58,3.62,4.31,3.83,8.9,4.87,13.06C587.2,701.75,590.19,705,586.23,706.13Z" transform="translate(-165.66 -496.93)"/><path class="cls-5" d="M996.58,635.25c-7.24.17-14.34-.6-20.26-5.16-3.74-2.89-4.89-6.91-2.27-11.31s6-4.06,9.77-1.37a13.12,13.12,0,0,0,4.95,1.86c5.86,1.14,13.83,3.75,16-3.1s-6.73-6.14-10.94-8.4c-3.41-1.84-7.23-2.9-10.78-4.5-6.88-3.09-10.25-8.9-10.5-16.06-.27-7.66,3.28-13.93,10.25-17.38,10.72-5.31,21.94-5.33,33-1.24,5.25,1.93,8.25,5.91,6.11,11.74-2.25,6.12-6.56,3.43-10.55,2a16,16,0,0,0-5.24-.87c-4.48-.05-11.12-1.86-12.3,3.18-1.42,6.05,6.06,5.05,9.74,7a6.61,6.61,0,0,0,1,.4c16.94,6,23.66,14.13,21.33,25.93C1023.7,629.39,1013.6,635.32,996.58,635.25Z" transform="translate(-165.66 -496.93)"/><path class="cls-5" d="M541.49,599.21c-.54-37.63-.47-33.71,33.07-33.45,5.9,0,16.17-4.8,16.18,7.18,0,12.22-10.45,7.21-17,8.23-2.77.43-5.66.11-8.5.15-3.33,0-4,2.17-4,5s1,4.75,4.21,4.77c5,0,9.93.2,14.88,0s7.06,2,7.2,6.89-1.6,8.36-6.92,8.7c-4.23.28-8.5.22-12.75.1-4-.1-6.68.52-6.78,5.61-.11,5.34,2.2,6.75,7,6.51,5-.25,9.93.16,14.88-.1,5.13-.28,8.25,1.48,8.46,6.93.2,5-1.89,8.53-7.13,8.64-11,.23-22,.31-33-.11-7-.27-9.59-5.5-9.84-11.7C541.25,614.81,541.49,607,541.49,599.21Z" transform="translate(-165.66 -496.93)"/><path class="cls-5" d="M416.18,598.31c0,9-.29,18.06.1,27.08.24,5.54-1.11,9-7.21,9.05-5.09,0-11,0-11.23-6.76-.57-18.43-.65-36.89-.39-55.33.07-5.57,5.7-6,9.67-6.42,6.65-.78,12.73.76,16.11,7.56,5.16,10.4,10.38,20.77,16.55,33.1,0-12.05.19-22.05-.08-32-.14-4.82.5-8.57,6.24-8.81,5.53-.23,11.89,0,12.16,7.09.72,18.41.66,36.87.57,55.31,0,5.29-5,5.58-8.67,6-7,.88-13.59-.07-17.26-7.34q-7.29-14.45-14.5-29Z" transform="translate(-165.66 -496.93)"/><path class="cls-5" d="M795.05,563.51c-20.84.07-35.15,14.66-35.22,35.84-.14,21.61,13.62,35.78,34.74,35.92,21.88.14,36-14,35.91-36C830.41,578.37,815.62,563.44,795.05,563.51Zm7,54.88c-6.74,3.82-13.06,2.57-18-3.41-5.63-6.87-5.42-24.45.35-31.05,5.21-5.83,11.8-6.6,18.13-2.78,6.87,4.17,7.5,11.46,7.08,18.76C810,607.27,809.16,614.29,802.07,618.39Z" transform="translate(-165.66 -496.93)"/><path class="cls-5" d="M749.42,601.28c0,7.78-.18,15.57.07,23.35.18,5.4.06,10-7.2,9.92-6.44-.09-12.39-.72-12.69-9.12q-.44-12.16-.56-24.36c-.09-8.49.51-17-.17-25.45-.63-7.9,3.47-10,10-10,6.71,0,10.69,3,10.62,10.2C749.35,584.3,749.42,592.79,749.42,601.28Z" transform="translate(-165.66 -496.93)"/><path class="cls-5" d="M689.92,635.24c-6.12.21-12.08-.54-17.57-3.39-5-2.58-7.76-6.54-5.41-12.18,2.53-6.09,6.74-4.58,11.09-1.85a13,13,0,0,0,5,1.75c5.5.75,13.08,3.23,15-3.36,2.13-7.3-6.75-6.14-10.88-8.47-3.36-1.9-7.21-2.9-10.74-4.52-6.79-3.13-10.14-8.67-10.37-16-.25-7.83,3.2-13.89,10.13-17.36,10.7-5.36,21.9-5.25,33-1.3,5.34,1.9,8.11,6,6.09,11.73-2.18,6.26-6.49,3.6-10.43,2a6.15,6.15,0,0,0-2.07-.45c-5.46-.21-13.62-3.16-15.22,2.88-1.84,7,7.52,5.1,11.59,7.69,2.65,1.69,5.91,2.37,8.71,3.86,7.84,4.18,12.5,10.4,11.66,19.71s-6.49,14.49-14.89,17.43C699.81,635.07,694.9,635.3,689.92,635.24Z" transform="translate(-165.66 -496.93)"/><path class="cls-5" d="M653.62,618.94a16.71,16.71,0,0,0-2.64-3.26c-3.76-4-5.63-7.09.07-11.81,7.36-6.11,8.19-14.66,4.58-23.41-5.14-12.44-21.47-17-43.35-13.48-14.66,2.36-9.45,13.27-10.28,21.54-.42,3.89-.07,7.78-.07,11.74h.35c0,8.47.07,17,0,25.56,0,5.21,2.92,7.57,7.71,8.48,9.1,1.8,11.18-.77,11.74-13.55.14-2.57-1.6-6.18,2.36-7.23,3.41-.83,4.93,2,6.53,4.38,2.71,4.17,5.21,8.55,8.55,12.16,5,5.56,11.25,6.18,17,1.25C662.44,626.1,655.77,622.83,653.62,618.94Zm-26.4-21.32c-7.44.41-5.07-4.94-5.56-8.55-.56-4.93.07-8.61,6.46-7.85,5.21.56,9.1,2.29,9,8.2C637.15,596,632.84,597.34,627.22,597.62Z" transform="translate(-165.66 -496.93)"/><path class="cls-5" d="M915,600.66c0-7.79-.15-15.58,0-23.36s4.73-11.55,12.25-11.67c9.92-.16,19.85.13,29.77-.14,5.21-.14,6.93,2.69,7.22,7.06s-1.43,7.75-6.16,8.39c-3.14.43-6.52-.36-9.52.43-4.7,1.24-13.21-4.34-13.52,4.57-.32,9.23,8.42,3.69,13,5.13,1.62.51,3.53.2,5.29.07,5.49-.41,7.61,2.16,7.6,7.54s-2.5,7.88-7.6,8.08c-3.54.14-7.09.13-10.63.06-4.45-.09-8.38-.4-8.26,6.29.13,7,4.73,5.66,8.76,5.75,4.6.1,9.22.21,13.82,0,4.79-.25,7.39,1.74,7.74,6.53s-1.46,8.82-6.71,9c-11.32.32-22.68.34-34-.19-6.48-.3-8.88-5.41-9.12-11.18-.32-7.42-.08-14.87-.08-22.31Z" transform="translate(-165.66 -496.93)"/><path class="cls-5" d="M501.81,615.53c3.16-12.59,6.59-24.82,9.22-37.23,1.73-8.17,6-11.73,14.12-10.17,9.28,1.78,8.08,8.71,6.44,15a294.12,294.12,0,0,1-16.23,44.92c-3.18,7.16-9.12,8.51-15.67,8.5s-11.33-2.83-14-9.32a481.44,481.44,0,0,1-16.75-45.9c-1.56-5.18-3.69-10.43,4.23-12.6,7.33-2,12.67-.36,15,7.33,3.32,10.84,6.47,21.73,9.7,32.6C498.56,611,499,613.52,501.81,615.53Z" transform="translate(-165.66 -496.93)"/><path class="cls-5" d="M884.15,567.06c14.64-3.08,17.47-1,17.55,13.33.07,13.49.09,27,0,40.45,0,5.37,2,11.9-6.67,13.09-7.81,1.08-15,.82-19.19-7.34-5.07-10-10-20-16.77-29.56,0,9.36-.18,18.72.07,28.07.14,5.13-.31,9.33-6.81,9.34-5.12,0-10.63-.08-11.37-6.76-2-18.38-1-36.84-.56-55.26.14-5.3,5.67-5.95,9.78-6.47,6.72-.84,12.83.69,16.2,7.4,4.61,9.17,9,18.43,13.55,27.66,5.29.52,2.86-3.53,3-5.6C883.78,586,881.76,576.43,884.15,567.06Z" transform="translate(-165.66 -496.93)"/><path class="cls-1" d="M438,703.1c0,10.19,0,20.39,0,30.59,0,1.68-.49,2.28-2.13,2.58a57.7,57.7,0,0,1-19.57.53,10.92,10.92,0,0,1-9.6-9.88,47.94,47.94,0,0,1-.4-6.1c0-16.93.31-33.88-.15-50.8-.23-8.62,3.07-14.52,10.39-18.42,17.24-9.21,35.06-11.81,53.64-4.3a19.91,19.91,0,0,1,5.07,2.86c1.54,1.27,2.6,1,4.15.06,14-8.23,28.81-9.38,44-4.35,12.51,4.13,20.32,15.07,20.48,28.49.23,19.86.09,39.72.14,59.58,0,1.19-.12,2-1.54,2.25a57.74,57.74,0,0,1-19,.76c-7.14-1.05-10.77-5.16-10.85-12.45-.13-12-.06-23.94-.07-35.91,0-3.28,0-6.56,0-9.84-.13-7.88-5.56-12.32-13.41-11-.61.1-1.22.23-1.82.39-5.77,1.53-6.38,2.32-6.37,8.2,0,19,0,38,.07,56.93,0,2-.54,2.68-2.54,3.05a66.2,66.2,0,0,1-15.89.91c-8.8-.53-13-4.87-13.12-13.74-.13-7.18,0-14.36-.05-21.54V680.15c0-10-7.58-15.13-17-11.58-.41.15-.81.37-1.23.5-2.41.69-3.33,2.06-3.27,4.77.2,9.75.08,19.5.08,29.26Z" transform="translate(-165.66 -496.93)"/><path class="cls-1" d="M387.72,591.68v39.38c0,1.18.26,2.35-1.51,2.65-6.17,1.06-12.37,1.82-18.62,1.12-8.3-.93-12.19-5.18-12.53-13.56-.13-3.3-.05-6.61-.06-9.91,0-22.22,0-44.44-.09-66.65,0-2.45.45-3.46,3.06-3.8,5.75-.76,11.44-1.45,17.26-.83,7.94.84,12.18,5,12.32,13,.22,11.47.13,23,.17,34.42Z" transform="translate(-165.66 -496.93)"/><path class="cls-1" d="M371.38,531.43c-10.42,0-17.86-7.15-17.9-17.19s7.42-17.26,17.79-17.31c10.59-.06,18,7.09,18,17.34S381.87,531.44,371.38,531.43Z" transform="translate(-165.66 -496.93)"/></g></svg>