<svg id="logo" xmlns="http://www.w3.org/2000/svg" viewBox="0 0 136.24 34.68"><defs><style>.cls-1{fill:#fefefe;}.cls-2{fill:#fdfdfd;}.cls-3{fill:#010101;}.cls-4{fill:#020202;}.cls-5{fill:#3a3a3a;}.cls-6{fill:#fff;}</style></defs><title>im-logo</title><path d="M31.77,106.24a7.55,7.55,0,1,1,7.59-7.54A7.59,7.59,0,0,1,31.77,106.24Z" transform="translate(-24.16 -71.6)"/><path class="cls-1" d="M36.12,100.22l-3.58,2a.23.23,0,0,0-.12.23q0,.45,0,.9a.65.65,0,0,1-.32.6,4.54,4.54,0,0,1-.62.32,1.27,1.27,0,0,1-1.36-.94c0-.62,0-1.25,0-1.87,0-.17,0-.26-.2-.32-.8-.33-1.59-.66-2.38-1-.19-.08-.21,0-.21.15,0,.43,0,.87,0,1.3a.69.69,0,0,1-.44.69l0,0c-.53.45-1,.26-1.51-.08a.68.68,0,0,1-.32-.58V98.24c0-1.07.63-1.62,1.7-1.9a4.87,4.87,0,0,1,1.37-.14.58.58,0,0,0,.23,0l2.08-.8a.28.28,0,0,0,.22-.29,1.44,1.44,0,0,1,.4-.84,3.37,3.37,0,0,1,2.89-1,6.17,6.17,0,0,1,2.92.93A3.24,3.24,0,0,1,38.44,97c0,1.08,0,2.16,0,3.24a.87.87,0,0,1-.42.75c-.59.47-1.09.25-1.6-.09A.7.7,0,0,1,36.12,100.22Z" transform="translate(-24.16 -71.6)"/><path d="M32.45,99.78c-.08-1.92-1.34-2.78-2.92-3.38L31,95.84c.11,0,.18,0,.26,0l3.6,1.34.24.08c.12,0,.23.06.28-.08s-.08-.18-.18-.22l-3.57-1.34c-.13,0-.33,0-.36-.2a.79.79,0,0,1,.14-.63A2.58,2.58,0,0,1,32.6,94a3.88,3.88,0,0,1,2,0,5.18,5.18,0,0,1,2.14.88A2.61,2.61,0,0,1,37.8,97c0,1,0,2.07,0,3.11a.49.49,0,0,1-.68.41.46.46,0,0,1-.34-.56,7.28,7.28,0,0,0,0-.81l-4.35,2.37v-.89c0-.13.1-.14.18-.18l3.88-2.09,0,0c.27-.15.35-.32.26-.5s-.3-.21-.56-.07l-2.19,1.17Z" transform="translate(-24.16 -71.6)"/><path d="M26.69,99v2.35a.5.5,0,0,1-.68.41.49.49,0,0,1-.34-.54c0-1,0-2,0-2.93a1.16,1.16,0,0,1,1-1.31,4.51,4.51,0,0,1,4.39,1,2.06,2.06,0,0,1,.7,1.61c0,1.16,0,2.31,0,3.47a.49.49,0,0,1-.63.39.5.5,0,0,1-.39-.58c0-.66,0-1.33,0-2,0-.1,0-.2-.12-.25Z" transform="translate(-24.16 -71.6)"/><path class="cls-2" d="M29.07,99.41a.31.31,0,0,1-.21,0A2.57,2.57,0,0,1,28,98.09c-.05-.21-.1-.45.12-.59a.52.52,0,0,1,.63.12.64.64,0,0,0,.44.19.91.91,0,0,1,.76.94A.75.75,0,0,1,29.07,99.41Z" transform="translate(-24.16 -71.6)"/><path class="cls-3" d="M29.57,98.58a.39.39,0,0,1-.29.41.41.41,0,0,1-.55-.1,1.66,1.66,0,0,1-.47-.82c0-.09,0-.19.06-.25s.2,0,.28.06a.89.89,0,0,1,.24.3c0,.07.06.12.17.06C29.3,98.06,29.56,98.22,29.57,98.58Z" transform="translate(-24.16 -71.6)"/><path d="M39.82,92.38a7.56,7.56,0,1,1,7.62-7.53A7.61,7.61,0,0,1,39.82,92.38Z" transform="translate(-24.16 -71.6)"/><path class="cls-1" d="M39.81,88.93H34.44c-.64,0-.92-.27-.92-.92V86.09a1.19,1.19,0,0,1,.06-.46.13.13,0,0,0,0-.16.55.55,0,0,1,0-.59c.44-.77.88-1.54,1.34-2.3.11-.18.18-.28,0-.45a.79.79,0,0,1-.19-.47,7.21,7.21,0,0,1,0-1.54A1.24,1.24,0,0,1,36,79c.15,0,.31,0,.46,0h6.86a1.3,1.3,0,0,1,1.35.93,1.34,1.34,0,0,1,0,.35c0,.39,0,.77,0,1.16a1.2,1.2,0,0,1-.28.83s-.12.08,0,.16a5.51,5.51,0,0,1,.77,1.21c.19.31.37.63.55,1a1,1,0,0,1,.21.81.11.11,0,0,0,0,.08,1.38,1.38,0,0,1,.15.91v1.72a.76.76,0,0,1-.85.84Z" transform="translate(-24.16 -71.6)"/><path d="M39.81,88.33c-1.79,0-3.58,0-5.37,0-.25,0-.32-.08-.32-.32q0-1,0-2c0-.23.08-.31.3-.31,3.6,0,7.19,0,10.79,0,.22,0,.29.09.29.31q0,1,0,2c0,.23-.08.29-.3.29C43.4,88.32,41.61,88.33,39.81,88.33Z" transform="translate(-24.16 -71.6)"/><path d="M45.35,85.14H34.19a2,2,0,0,1,.28-.52c.29-.52.59-1,.89-1.56a.61.61,0,0,1,.69-.36,3.2,3.2,0,0,0,.82,0,2.6,2.6,0,0,1,1.52.36,8.93,8.93,0,0,0,4.27,1c.62,0,1.24,0,1.87-.06.09,0,.18,0,.24.09C44.94,84.44,45.13,84.76,45.35,85.14Z" transform="translate(-24.16 -71.6)"/><path d="M44.09,80.52A1.26,1.26,0,0,0,43,80.33a6.31,6.31,0,0,1-1.79,0,1.79,1.79,0,0,0-.61,0A.57.57,0,0,0,40,81a4.63,4.63,0,0,1,.07.74c0,.37,0,.37-.4.33,0-.42-.1-.83-.05-1.25s-.19-.47-.49-.53a1.88,1.88,0,0,0-.71,0,6.51,6.51,0,0,1-2,0,1.77,1.77,0,0,0-.33,0,.61.61,0,0,0-.63.81,2.19,2.19,0,0,1,0,.85.58.58,0,0,1-.17-.45c0-.34,0-.69,0-1,0-.58.23-.81.82-.81h3.65c1.16,0,2.32,0,3.49,0C43.93,79.58,44.18,79.89,44.09,80.52Z" transform="translate(-24.16 -71.6)"/><path d="M40.71,81.58a1.9,1.9,0,0,0,0-.41c-.07-.3,0-.34.26-.28A6,6,0,0,0,42.2,81a7.17,7.17,0,0,0,1.13-.09c.19,0,.3,0,.23.24a1.35,1.35,0,0,0,.06.66c0,.13,0,.22-.16.21-.78-.07-1.57,0-2.35,0C40.71,82,40.71,82,40.71,81.58Z" transform="translate(-24.16 -71.6)"/><path d="M36.09,80.84a.74.74,0,0,1,.36,0,6.56,6.56,0,0,0,2.21,0l.26,0c.09,0,.16,0,.13.13a1.58,1.58,0,0,0,0,.78c0,.12,0,.22-.14.21-.85-.11-1.71.09-2.56,0-.17,0-.24-.08-.21-.26A2.49,2.49,0,0,0,36.09,80.84Z" transform="translate(-24.16 -71.6)"/><path d="M44.35,83.43a9.82,9.82,0,0,1-5.17-.72h4a1.08,1.08,0,0,0,.18,0C44,82.7,44.1,82.8,44.35,83.43Z" transform="translate(-24.16 -71.6)"/><path d="M47.91,91.05a7.61,7.61,0,1,1-7.67,7.59A7.65,7.65,0,0,1,47.91,91.05Z" transform="translate(-24.16 -71.6)"/><path class="cls-1" d="M47.91,92.81h4a.86.86,0,0,1,.28,0,.4.4,0,0,1,.33.41.37.37,0,0,1-.29.4c-.13,0-.2.07-.2.23,0,2.62,0,5.23,0,7.85,0,.46,0,.93,0,1.39s0,.36-.35.36H44.15c-.32,0-.35,0-.35-.36,0-3,0-6.09,0-9.14,0-.18,0-.3-.23-.34a.35.35,0,0,1-.27-.37.42.42,0,0,1,.24-.4.7.7,0,0,1,.35,0Z" transform="translate(-24.16 -71.6)"/><path class="cls-2" d="M52,104.5H43.75c.37-.22.64-.52,1-.52,2.09,0,4.18,0,6.27,0a.25.25,0,0,1,.15,0l.81.46Z" transform="translate(-24.16 -71.6)"/><path d="M51.52,98.32c0,1.47,0,2.94,0,4.4,0,.2-.05.26-.26.26q-3.36,0-6.73,0c-.22,0-.26-.07-.26-.27q0-4.39,0-8.78c0-.2,0-.26.26-.26h6.73c.19,0,.26,0,.26.24C51.52,95.39,51.52,96.86,51.52,98.32Z" transform="translate(-24.16 -71.6)"/><path class="cls-1" d="M44.78,97.21c0-.91,0-1.83,0-2.74,0-.22.07-.31.3-.3h2.27c.22,0,.3.07.3.3,0,1.83,0,3.65,0,5.48,0,.23-.07.31-.3.3-.76,0-1.51,0-2.27,0-.23,0-.3-.07-.3-.3C44.79,99,44.78,98.13,44.78,97.21Z" transform="translate(-24.16 -71.6)"/><path class="cls-1" d="M48.16,97.2c0-.9,0-1.81,0-2.71,0-.24.06-.33.3-.32.76,0,1.52,0,2.28,0,.2,0,.29.06.29.28,0,1.84,0,3.67,0,5.51,0,.21-.06.3-.28.29-.77,0-1.53,0-2.3,0-.23,0-.3-.08-.29-.3C48.17,99,48.16,98.12,48.16,97.2Z" transform="translate(-24.16 -71.6)"/><path class="cls-1" d="M47.87,102.48H45.11c-.26,0-.34-.08-.33-.33s0-.76,0-1.14c0-.19.05-.28.26-.28h5.72c.19,0,.26.08.25.26,0,.41,0,.81,0,1.22,0,.2-.08.27-.27.27Z" transform="translate(-24.16 -71.6)"/><path class="cls-4" d="M47,97.21v1c0,.17,0,.31-.25.31s-.27-.13-.27-.3c0-.7,0-1.4,0-2.09,0-.18.07-.32.27-.31s.25.14.25.32Z" transform="translate(-24.16 -71.6)"/><path class="cls-3" d="M48.77,97.19v-1c0-.17,0-.31.25-.32s.27.14.27.32v2.07c0,.18-.06.32-.26.31s-.26-.13-.26-.31Z" transform="translate(-24.16 -71.6)"/><path class="cls-3" d="M47.89,101.71c-.12,0-.23,0-.34,0a.22.22,0,0,1-.21-.25.21.21,0,0,1,.2-.22,3.14,3.14,0,0,1,.75,0,.24.24,0,0,1,0,.47c-.12,0-.25,0-.38,0Z" transform="translate(-24.16 -71.6)"/><path d="M56.12,85.23V90.9c0,.17,0,.34-.21.39a9.65,9.65,0,0,1-2.68.16,1.8,1.8,0,0,1-1.81-2c0-.48,0-1,0-1.43,0-3.2,0-6.4,0-9.6,0-.35.07-.49.44-.54a10.38,10.38,0,0,1,2.49-.12,1.74,1.74,0,0,1,1.77,1.87c0,1.66,0,3.31,0,5Z" transform="translate(-24.16 -71.6)"/><path d="M53.77,76.56a2.48,2.48,0,1,1,2.57-2.47A2.43,2.43,0,0,1,53.77,76.56Z" transform="translate(-24.16 -71.6)"/><path d="M63.36,101.27c0,1.47,0,2.94,0,4.41,0,.24-.07.33-.31.37a8.29,8.29,0,0,1-2.81.08,1.59,1.59,0,0,1-1.39-1.43,6.35,6.35,0,0,1,0-.87c0-2.44,0-4.88,0-7.32a2.66,2.66,0,0,1,1.5-2.65A8.76,8.76,0,0,1,68,93.24a3.06,3.06,0,0,1,.73.41c.22.19.38.14.6,0A7.39,7.39,0,0,1,75.66,93a4.24,4.24,0,0,1,3,4.1c0,2.86,0,5.72,0,8.57,0,.18,0,.29-.22.33a8.41,8.41,0,0,1-2.74.11,1.64,1.64,0,0,1-1.56-1.79c0-1.73,0-3.45,0-5.17V97.77a1.53,1.53,0,0,0-1.93-1.58l-.27,0c-.83.23-.91.34-.91,1.19q0,4.09,0,8.19c0,.29-.08.39-.37.44a9.25,9.25,0,0,1-2.29.13,1.78,1.78,0,0,1-1.89-2c0-1,0-2.06,0-3.1V98A1.68,1.68,0,0,0,64,96.3l-.18.08a.58.58,0,0,0-.47.68c0,1.41,0,2.81,0,4.21Z" transform="translate(-24.16 -71.6)"/><path class="cls-5" d="M60.22,86.19c0,1.3,0,2.6,0,3.9,0,.79-.16,1.3-1,1.3s-1.59,0-1.62-1c-.08-2.66-.09-5.31-.06-8,0-.8.83-.85,1.4-.92a2.07,2.07,0,0,1,2.32,1.09c.74,1.49,1.49,3,2.38,4.76,0-1.73,0-3.17,0-4.61,0-.69.07-1.23.9-1.27s1.71,0,1.75,1c.1,2.65.09,5.31.08,8,0,.77-.73.81-1.25.87a2.16,2.16,0,0,1-2.49-1l-2.08-4.17Z" transform="translate(-24.16 -71.6)"/><path class="cls-5" d="M127.59,81.69c2.1-.44,2.51-.14,2.52,1.92s0,3.88,0,5.82c0,.78.28,1.72-1,1.89s-2.16.12-2.76-1.06A34.21,34.21,0,0,0,124,86c0,1.34,0,2.69,0,4,0,.73,0,1.34-1,1.34-.73,0-1.53,0-1.63-1a58.75,58.75,0,0,1-.09-8c0-.76.82-.85,1.41-.93A2.06,2.06,0,0,1,125,82.6c.67,1.32,1.31,2.65,2,4,.77.07.42-.51.44-.81C127.53,84.42,127.24,83,127.59,81.69Z" transform="translate(-24.16 -71.6)"/><path class="cls-5" d="M114.69,91.51a4.78,4.78,0,0,1-5-5.17,5.09,5.09,0,1,1,10.17,0A4.82,4.82,0,0,1,114.69,91.51Z" transform="translate(-24.16 -71.6)"/><path class="cls-5" d="M87,86.47a15.86,15.86,0,0,1,0-1.69c.12-1.19-.63-2.76,1.48-3.1,3.15-.51,5.5.15,6.24,1.94A2.73,2.73,0,0,1,94,87c-.82.68-.55,1.12,0,1.7a2.38,2.38,0,0,1,.38.47c.31.56,1.27,1,.37,1.78a1.61,1.61,0,0,1-2.45-.18A12.77,12.77,0,0,1,91.09,89c-.23-.35-.45-.75-.94-.63s-.32.67-.34,1c-.08,1.84-.38,2.21-1.69,2A1.15,1.15,0,0,1,87,90.15c0-1.23,0-2.46,0-3.68Z" transform="translate(-24.16 -71.6)"/><path class="cls-5" d="M78.26,86.32c-.08-5.42-.07-4.85,4.76-4.82.85,0,2.33-.69,2.33,1s-1.5,1-2.44,1.18a8.28,8.28,0,0,1-1.22,0c-.48,0-.57.32-.58.72s.15.69.61.69c.71,0,1.43,0,2.14,0s1,.29,1,1-.23,1.2-1,1.25c-.61,0-1.22,0-1.83,0s-1,.08-1,.81.32,1,1,.94,1.43,0,2.14,0,1.19.22,1.22,1-.27,1.23-1,1.24c-1.58,0-3.16.05-4.74,0-1,0-1.38-.79-1.42-1.68C78.23,88.56,78.26,87.44,78.26,86.32Z" transform="translate(-24.16 -71.6)"/><path class="cls-5" d="M132,86.53c0-1.12,0-2.24,0-3.37a1.57,1.57,0,0,1,1.77-1.67c1.42,0,2.85,0,4.28,0,.75,0,1,.38,1,1s-.2,1.12-.89,1.21a12.45,12.45,0,0,0-1.37.06c-.67.18-1.9-.62-1.94.66s1.21.53,1.87.74a2.15,2.15,0,0,0,.76,0c.79-.06,1.09.31,1.09,1.08a1,1,0,0,1-1.09,1.17q-.77,0-1.53,0c-.64,0-1.21,0-1.19.91s.68.81,1.26.83,1.33,0,2,0,1.06.26,1.11.94-.21,1.28-1,1.3c-1.63,0-3.27,0-4.9,0-.93,0-1.27-.78-1.31-1.61-.05-1.07,0-2.14,0-3.21Z" transform="translate(-24.16 -71.6)"/><path class="cls-5" d="M72.55,88.67c.45-1.81,1-3.57,1.32-5.36.25-1.18.87-1.69,2-1.47,1.33.26,1.16,1.26.92,2.17a42.56,42.56,0,0,1-2.33,6.46,2.15,2.15,0,0,1-2.26,1.23,2,2,0,0,1-2-1.35c-.9-2.16-1.73-4.36-2.41-6.6-.22-.75-.53-1.5.61-1.82s1.82-.05,2.16,1.06c.48,1.56.93,3.13,1.4,4.69A1.53,1.53,0,0,0,72.55,88.67Z" transform="translate(-24.16 -71.6)"/><path class="cls-5" d="M99.63,91.51A5,5,0,0,1,97.1,91a1.29,1.29,0,0,1-.78-1.76c.36-.87,1-.66,1.59-.26a1.94,1.94,0,0,0,.72.25c.8.11,1.89.47,2.16-.48s-1-.89-1.56-1.22-1-.42-1.55-.65a2.44,2.44,0,0,1-1.49-2.31,2.53,2.53,0,0,1,1.46-2.5,5.91,5.91,0,0,1,4.75-.19,1.23,1.23,0,0,1,.87,1.69c-.31.9-.93.52-1.5.29a.77.77,0,0,0-.3-.06c-.78,0-2-.46-2.19.41s1.09.73,1.67,1.11c.38.24.85.34,1.26.55a2.78,2.78,0,0,1,1.67,2.84,2.81,2.81,0,0,1-2.14,2.51A6.31,6.31,0,0,1,99.63,91.51Z" transform="translate(-24.16 -71.6)"/><path class="cls-5" d="M143.77,91.51a4.42,4.42,0,0,1-2.92-.75,1.15,1.15,0,0,1-.32-1.62c.38-.65.85-.59,1.4-.2a2,2,0,0,0,.72.27c.84.16,2,.54,2.3-.45s-1-.88-1.57-1.21-1-.42-1.55-.65a2.47,2.47,0,0,1-1.52-2.31,2.57,2.57,0,0,1,1.48-2.5,5.85,5.85,0,0,1,4.76-.18,1.24,1.24,0,0,1,.88,1.69c-.33.88-1,.5-1.52.29a2.43,2.43,0,0,0-.76-.13c-.64,0-1.6-.26-1.77.46-.2.87.88.73,1.4,1l.15.05c2.44.86,3.4,2,3.07,3.74S146.22,91.52,143.77,91.51Z" transform="translate(-24.16 -71.6)"/><path class="cls-5" d="M108.19,86.62c0,1.12,0,2.24,0,3.36,0,.78,0,1.44-1,1.43s-1.78-.11-1.82-1.32-.07-2.33-.08-3.5.07-2.45,0-3.67.5-1.43,1.44-1.44,1.53.43,1.52,1.47C108.18,84.17,108.19,85.4,108.19,86.62Z" transform="translate(-24.16 -71.6)"/><path class="cls-5" d="M127.59,81.69v5.6c-.55,0-.6-.36-.62-.71.6-1,.12-2.15.29-3.22C127.35,82.8,127,82.15,127.59,81.69Z" transform="translate(-24.16 -71.6)"/><path class="cls-6" d="M116.86,86.42a2.58,2.58,0,0,1-1.09,2.66,1.88,1.88,0,0,1-2.59-.49,4.37,4.37,0,0,1,0-4.47,1.92,1.92,0,0,1,2.61-.4A2.65,2.65,0,0,1,116.86,86.42Z" transform="translate(-24.16 -71.6)"/><path class="cls-6" d="M89.8,84.86c-.08-.71,0-1.24.93-1.13.75.08,1.31.33,1.3,1.18s-.62,1.14-1.43,1.18C89.53,86.15,89.87,85.38,89.8,84.86Z" transform="translate(-24.16 -71.6)"/><path class="cls-5" d="M125.79,101.4c0-1.43.06-2.86,0-4.29,0-.85.33-1.18,1.09-1.21s1.58.13,1.6,1.11c.05,2.67,0,5.35,0,8,0,.61-.46.75-.94.8-1,.11-2.07.24-2.66-.9-.77-1.51-1.51-3-2.45-4.94,0,1.83,0,3.3,0,4.77,0,.71-.11,1.16-.94,1.14s-1.66.06-1.69-1c-.08-2.67-.07-5.34,0-8,0-.72.72-.92,1.32-1a2,2,0,0,1,2.26.95c.73,1.49,1.41,3,2.12,4.5C125.6,101.48,125.68,101.61,125.79,101.4Z" transform="translate(-24.16 -71.6)"/><path class="cls-5" d="M101.53,106.21c-.57,0-1.07-.07-1.57-.14A1.81,1.81,0,0,1,98.14,104c.08-2.06.06-4.14,0-6.21a1.31,1.31,0,0,1,1.21-1.53,9.63,9.63,0,0,1,4.37,0c2.31.63,3.58,2.55,3.44,5.16a4.62,4.62,0,0,1-3.91,4.66C102.67,106.16,102.07,106.16,101.53,106.21Z" transform="translate(-24.16 -71.6)"/><path class="cls-5" d="M118.26,100.89c0,3.15-2,5.19-5,5.18s-5-2.09-5-5.25a5,5,0,1,1,10,.07Z" transform="translate(-24.16 -71.6)"/><path class="cls-5" d="M160.4,100.88c0,3.18-2,5.2-5,5.19s-5-2.08-5-5.25a4.82,4.82,0,0,1,4.95-5.15C158.38,95.65,160.4,97.75,160.4,100.88Z" transform="translate(-24.16 -71.6)"/><path class="cls-5" d="M143.83,106.2c-.54,0-1-.07-1.54-.12a1.81,1.81,0,0,1-1.86-2.18c.11-2.06.07-4.14,0-6.21a1.29,1.29,0,0,1,1.23-1.49,10.34,10.34,0,0,1,4.11,0c2.39.54,3.72,2.43,3.62,5.14a4.56,4.56,0,0,1-3.94,4.75C144.91,106.16,144.35,106.16,143.83,106.2Z" transform="translate(-24.16 -71.6)"/><path class="cls-5" d="M134.33,96.17c1.43,0,2.31.42,2.65,1.82.54,2.19,1.24,4.33,1.84,6.5.16.56.69,1.3-.34,1.56-.85.21-2,.41-2.19-.72-.34-1.86-1.64-1.3-2.72-1.36-.79,0-.73.64-.79,1.06-.16,1.3-1,1.22-1.93,1.08-1.11-.18-1.1-1-.84-1.78.73-2.32,1.53-4.62,2.25-7C132.62,96.21,133.58,96.3,134.33,96.17Z" transform="translate(-24.16 -71.6)"/><path class="cls-5" d="M83.92,96.17c1.53,0,2.39.48,2.73,1.85.56,2.18,1.24,4.32,1.84,6.49.16.57.62,1.32-.4,1.55s-1.75.32-2.23-.76c-.19-.44,0-1.17-.61-1.28a9.51,9.51,0,0,0-2.2,0c-.67.05-.55.68-.61,1.08-.2,1.27-1.07,1.2-2,1-1.09-.21-1.07-1-.8-1.8.76-2.31,1.56-4.61,2.26-6.94C82.29,96.13,83.31,96.38,83.92,96.17Z" transform="translate(-24.16 -71.6)"/><path class="cls-5" d="M90.07,100.58c0-1.11.06-2.22,0-3.32-.06-.92.24-1.36,1.19-1.38s1.63.31,1.63,1.39c0,1.71.06,3.41,0,5.11,0,1,.19,1.49,1.28,1.33.5-.07,1,0,1.52,0,.78-.06,1.09.31,1.1,1s-.29,1.15-1,1.15c-1.38,0-2.77,0-4.15,0a1.39,1.39,0,0,1-1.5-1.58Z" transform="translate(-24.16 -71.6)"/><path class="cls-5" d="M125.79,101.4c.21.19.41.49.06.6s-.37-.32-.34-.62Z" transform="translate(-24.16 -71.6)"/><path class="cls-6" d="M101,101c0-.51,0-1,0-1.52,0-1.41.38-1.68,1.71-1.19,1.14.42,1.67,1.62,1.48,3.36-.12,1.14-.54,2-1.81,2.26-.88.15-1.55.06-1.4-1.13A13.21,13.21,0,0,0,101,101Z" transform="translate(-24.16 -71.6)"/><path class="cls-6" d="M115.34,100.79a4.4,4.4,0,0,1-.26,1.84,1.92,1.92,0,0,1-1.94,1.25,1.85,1.85,0,0,1-1.75-1.31,4.69,4.69,0,0,1-.2-2.7c.24-1.13.81-2,2.09-2,1.13,0,1.88.82,2,2.18C115.34,100.33,115.33,100.6,115.34,100.79Z" transform="translate(-24.16 -71.6)"/><path class="cls-6" d="M157.63,100.91a10.16,10.16,0,0,1-.38,1.7,1.83,1.83,0,0,1-1.78,1.27,1.85,1.85,0,0,1-1.9-1.3,4.64,4.64,0,0,1,0-3.36,2,2,0,0,1,3.75,0A12.87,12.87,0,0,1,157.63,100.91Z" transform="translate(-24.16 -71.6)"/><path class="cls-6" d="M143.22,101.12a15.26,15.26,0,0,0,0-1.79c-.16-1.3.55-1.33,1.49-1.09,1.26.32,2,1.5,1.85,3.15s-.83,2.47-2.13,2.59c-.8.07-1.35,0-1.21-1.07A13.36,13.36,0,0,0,143.22,101.12Z" transform="translate(-24.16 -71.6)"/><path class="cls-6" d="M134.51,98.66c.26.87.47,1.42.59,2,.07.35.47.83-.06,1a1.66,1.66,0,0,1-1.2,0c-.54-.26-.07-.72,0-1.06A19.31,19.31,0,0,1,134.51,98.66Z" transform="translate(-24.16 -71.6)"/><path class="cls-6" d="M84.07,98.92a4,4,0,0,1,.7,1.88c.07.28.5.74-.07.91a1.86,1.86,0,0,1-1.21,0c-.45-.2-.12-.65,0-1C83.6,100.17,83.83,99.62,84.07,98.92Z" transform="translate(-24.16 -71.6)"/></svg>