<svg id="logo" xmlns="http://www.w3.org/2000/svg" viewBox="0 0 946.45 240.91"><defs><style>.cls-1{fill:#fefefe;}.cls-2{fill:#fdfdfd;}.cls-3{fill:#010101;}.cls-4{fill:#020202;}.cls-5{fill:#3a3a3a;}</style></defs><title>logo</title><path d="M220.24,737.63c-29.07,0-52.87-23.62-52.84-52.51s23.77-52.38,52.78-52.4,52.87,23.63,52.83,52.52S249.26,737.61,220.24,737.63Z" transform="translate(-167.4 -496.93)"/><path class="cls-1" d="M250.51,695.77c-8.43,4.61-16.64,9.11-24.88,13.58a1.48,1.48,0,0,0-.82,1.57c0,2.08,0,4.16,0,6.24a4.57,4.57,0,0,1-2.29,4.17,30.18,30.18,0,0,1-4.26,2.21c-3.24,1.26-9.41-3-9.46-6.51q-.09-6.49,0-13a2,2,0,0,0-1.39-2.23q-8.34-3.36-16.56-7c-1.32-.58-1.44-.17-1.42,1,.05,3,0,6.06,0,9.09a4.75,4.75,0,0,1-3,4.79,1.62,1.62,0,0,0-.33.13c-3.68,3.1-7.07,1.78-10.45-.6a4.58,4.58,0,0,1-2.24-4q0-11.6,0-23.18c0-7.45,4.39-11.29,11.8-13.24a36.45,36.45,0,0,1,9.55-1,3.93,3.93,0,0,0,1.56-.2c4.82-1.85,9.62-3.72,14.46-5.5a2,2,0,0,0,1.55-2,9.62,9.62,0,0,1,2.75-5.84c5.46-5.83,12.37-7.8,20.06-7.15,7.22.61,14.18,2.41,20.33,6.45,7,4.59,11,11,11.07,19.53,0,7.49,0,15,0,22.48,0,2.42-1.12,3.75-3,5.22-4.07,3.25-7.55,1.73-11.13-.65A4.88,4.88,0,0,1,250.51,695.77Z" transform="translate(-167.4 -496.93)"/><path d="M225,692.72c-.54-13.32-9.31-19.3-20.27-23.47,3.32-1.29,6.63-2.54,9.92-3.88.75-.31,1.27.1,1.84.31q12.5,4.65,25,9.34c.55.2,1.13.34,1.67.58.82.35,1.61.37,1.93-.56s-.52-1.31-1.25-1.58c-8.27-3.09-16.54-6.16-24.8-9.28-.89-.33-2.27-.25-2.46-1.38a5.39,5.39,0,0,1,.93-4.41,18.11,18.11,0,0,1,8.58-6.1c4.64-1.49,9.28-1.06,13.9,0,5.3,1.17,10.47,2.71,14.85,6.11a17.92,17.92,0,0,1,7.34,14.9c0,7.2,0,14.39,0,21.59,0,2.26-2.6,3.71-4.71,2.85-1.86-.75-2.62-1.81-2.37-3.85a50.3,50.3,0,0,0,0-5.67l-30.25,16.48c0-2.22,0-4.2,0-6.18,0-.91.74-1,1.26-1.27l27-14.49.32-.15c1.87-1,2.48-2.21,1.81-3.48s-2-1.47-3.88-.49l-15.21,8.15Z" transform="translate(-167.4 -496.93)"/><path d="M185,687.52c0,5.63,0,11,0,16.31,0,2.16-2.71,3.68-4.72,2.83a3.41,3.41,0,0,1-2.35-3.76c.15-6.76,0-13.53.13-20.3.1-5.31,1.89-7.8,7-9.09,11.33-2.88,21.67-.88,30.45,7.16a14.53,14.53,0,0,1,4.87,11.25c-.07,8,0,16.05,0,24.07,0,1.87-2.61,3.41-4.38,2.74a3.57,3.57,0,0,1-2.69-4.05c.21-4.62,0-9.26,0-13.89,0-.71.09-1.37-.81-1.74C203.37,695.27,194.31,691.45,185,687.52Z" transform="translate(-167.4 -496.93)"/><path class="cls-2" d="M201.53,690.15a2.13,2.13,0,0,1-1.5-.36c-2.83-2.43-5.31-5.1-6.28-8.83-.37-1.46-.68-3.09.81-4.05s3.15-.26,4.38.83a4.4,4.4,0,0,0,3,1.29c2.87.09,5.5,3.5,5.32,6.53C207.13,688.29,204.8,690.14,201.53,690.15Z" transform="translate(-167.4 -496.93)"/><path class="cls-3" d="M205,684.39a2.69,2.69,0,0,1-2,2.86c-1.38.53-2.65.75-3.8-.68-1.42-1.75-3-3.34-3.29-5.73-.06-.62-.28-1.35.45-1.76s1.37.06,1.94.44a5.9,5.9,0,0,1,1.61,2.09c.29.49.45.84,1.18.41C203.12,680.8,204.94,681.88,205,684.39Z" transform="translate(-167.4 -496.93)"/><path d="M276.22,641.29c-29.1-.06-52.82-23.73-52.74-52.63s23.9-52.35,52.89-52.29S329.19,560.1,329.1,589,305.21,641.34,276.22,641.29Z" transform="translate(-167.4 -496.93)"/><path class="cls-1" d="M276.11,617.38H238.83c-4.47,0-6.42-1.94-6.42-6.39s0-8.92,0-13.38a8,8,0,0,1,.47-3.15c.16-.39.34-.74.07-1.17a3.64,3.64,0,0,1,.18-4c3-5.36,6.09-10.73,9.33-16,.77-1.24,1.26-2,.09-3.16a5.36,5.36,0,0,1-1.3-3.25,52.23,52.23,0,0,1-.07-10.68c.44-4.65,3.86-7.72,8.54-8,1.07-.06,2.14,0,3.21,0h47.63c4.79,0,8.13,2.36,9.39,6.45a8.26,8.26,0,0,1,.27,2.46c0,2.68,0,5.36,0,8a8.43,8.43,0,0,1-2,5.76c-.28.32-.8.57-.23,1.14,2.38,2.41,3.63,5.54,5.34,8.38,1.32,2.19,2.55,4.43,3.78,6.67,1,1.76,2.12,3.49,1.5,5.68a.69.69,0,0,0,.08.51c1.48,1.93,1.06,4.19,1.07,6.36,0,4,0,8,0,12,0,3.74-2.12,5.82-5.89,5.82Z" transform="translate(-167.4 -496.93)"/><path d="M276.11,613.15c-12.42,0-24.85,0-37.28,0-1.74,0-2.25-.54-2.21-2.24.1-4.52.08-9,0-13.55,0-1.55.5-2.11,2.05-2.11q37.45,0,74.92,0c1.57,0,2,.61,2,2.13-.07,4.58-.08,9.16,0,13.74,0,1.58-.51,2-2.06,2C301.09,613.13,288.6,613.15,276.11,613.15Z" transform="translate(-167.4 -496.93)"/><path d="M314.57,591H237.06a16,16,0,0,1,2-3.63q3-5.43,6.16-10.82c1.05-1.83,2.38-2.91,4.77-2.48a21.66,21.66,0,0,0,5.69,0,18.36,18.36,0,0,1,10.59,2.47c9.25,5.09,19.22,6.91,29.64,7.07,4.34.06,8.67-.1,13-.42.65,0,1.25-.19,1.67.58C311.78,586.13,313.09,588.39,314.57,591Z" transform="translate(-167.4 -496.93)"/><path d="M305.82,558.9c-2.33-2.13-5.09-1.66-7.77-1.33a41.63,41.63,0,0,1-12.41-.07,13.46,13.46,0,0,0-4.25-.14c-2.65.39-3.95,2-3.77,4.66.11,1.71.69,3.35.52,5.11-.24,2.59-.16,2.6-2.8,2.26.15-2.89-.65-5.72-.34-8.66.22-2-1.29-3.25-3.38-3.7a14,14,0,0,0-5,.09,44.88,44.88,0,0,1-13.64-.2,9.41,9.41,0,0,0-2.31-.11c-3.51.25-5,2.08-4.43,5.57a15.49,15.49,0,0,1,.2,5.9,3.91,3.91,0,0,1-1.23-3.11q0-3.55,0-7.13c0-4,1.63-5.66,5.76-5.67h25.31q12.12,0,24.24,0C304.72,552.39,306.49,554.56,305.82,558.9Z" transform="translate(-167.4 -496.93)"/><path d="M282.39,566.27a12.16,12.16,0,0,0-.28-2.82c-.48-2.12-.3-2.39,1.78-1.93a47.85,47.85,0,0,0,8.86.63,53.53,53.53,0,0,0,7.8-.65c1.34-.15,2.08.11,1.64,1.68a9.11,9.11,0,0,0,.39,4.57c.21.93.05,1.55-1.08,1.45-5.46-.5-10.92.37-16.38,0C282.34,569,282.34,569,282.39,566.27Z" transform="translate(-167.4 -496.93)"/><path d="M250.29,561.16a4.63,4.63,0,0,1,2.5-.07,44.57,44.57,0,0,0,15.37,0,17.34,17.34,0,0,1,1.77-.12c.63,0,1.1.13.91.89a11.43,11.43,0,0,0,.27,5.45c.2.84,0,1.52-1,1.4-5.91-.7-11.84.67-17.75-.21-1.2-.17-1.67-.52-1.47-1.76C251.21,564.88,250.61,563,250.29,561.16Z" transform="translate(-167.4 -496.93)"/><path d="M307.66,579.14c-12.41.89-24.52.58-36-5h29C304.94,574.09,305.93,574.77,307.66,579.14Z" transform="translate(-167.4 -496.93)"/><path d="M332.41,632.05c29.35.06,53.27,23.92,53.18,53.06s-24.08,52.78-53.32,52.73S279,713.92,279.09,684.78,303.19,632,332.41,632.05Z" transform="translate(-167.4 -496.93)"/><path class="cls-1" d="M332.35,644.28h27.7a8.47,8.47,0,0,1,2,.13,2.83,2.83,0,0,1,2.3,2.86,2.67,2.67,0,0,1-2.07,2.82c-.91.22-1.37.47-1.37,1.6q.06,27.24,0,54.47c0,3.24,0,6.47,0,9.71,0,2.23-.27,2.5-2.48,2.5H306.26c-2.19,0-2.45-.27-2.45-2.52q0-31.74,0-63.49c0-1.23,0-2.1-1.57-2.37a2.48,2.48,0,0,1-1.89-2.56,2.84,2.84,0,0,1,1.65-2.77,5,5,0,0,1,2.46-.39Z" transform="translate(-167.4 -496.93)"/><path class="cls-2" d="M360.7,725.49H303.49c2.59-1.47,4.44-3.6,7.11-3.62,14.5-.11,29,0,43.5,0a2.32,2.32,0,0,1,1.06.12c1.9,1,3.79,2.13,5.67,3.2Z" transform="translate(-167.4 -496.93)"/><path d="M357.49,682.6c0,10.18,0,20.37,0,30.56,0,1.39-.32,1.8-1.76,1.79q-23.37-.08-46.76,0c-1.54,0-1.82-.46-1.82-1.91q.07-30.48,0-61c0-1.42.35-1.78,1.77-1.77q23.37.08,46.76,0c1.31,0,1.83.2,1.82,1.72C357.45,662.21,357.49,672.41,357.49,682.6Z" transform="translate(-167.4 -496.93)"/><path class="cls-1" d="M310.67,674.89c0-6.35,0-12.7,0-19,0-1.57.49-2.13,2.06-2.11q7.91.07,15.81,0c1.54,0,2.09.51,2.08,2.09q-.07,19,0,38.1c0,1.58-.51,2.11-2.07,2.09q-7.9-.09-15.81,0c-1.56,0-2.09-.5-2.07-2.08C310.71,687.58,310.67,681.23,310.67,674.89Z" transform="translate(-167.4 -496.93)"/><path class="cls-1" d="M334.13,674.83c0-6.29,0-12.58,0-18.87,0-1.62.45-2.26,2.12-2.24,5.28.07,10.55.06,15.82,0,1.43,0,2,.45,2,2q-.06,19.14,0,38.28c0,1.43-.41,2-1.94,2q-8-.09-16,0c-1.6,0-2.05-.59-2-2.13C334.17,687.53,334.13,681.18,334.13,674.83Z" transform="translate(-167.4 -496.93)"/><path class="cls-1" d="M332.14,711.51c-6.41,0-12.82,0-19.22,0-1.76,0-2.33-.55-2.24-2.28.12-2.63.08-5.27,0-7.9,0-1.36.39-2,1.82-2q19.86,0,39.72,0c1.31,0,1.8.54,1.78,1.84-.06,2.81-.07,5.63,0,8.44,0,1.43-.55,1.88-1.92,1.87C345.44,711.49,338.79,711.51,332.14,711.51Z" transform="translate(-167.4 -496.93)"/><path class="cls-4" d="M326.33,674.88c0,2.39,0,4.79,0,7.18,0,1.22-.36,2.19-1.75,2.22s-1.87-.91-1.88-2.13q0-7.27,0-14.54c0-1.22.51-2.16,1.88-2.13s1.75,1,1.75,2.22C326.32,670.09,326.33,672.49,326.33,674.88Z" transform="translate(-167.4 -496.93)"/><path class="cls-3" d="M338.37,674.74c0-2.33,0-4.67,0-7,0-1.22.3-2.21,1.7-2.26s1.92,1,1.92,2.27q0,7.17,0,14.36c0,1.21-.45,2.18-1.84,2.17s-1.79-.93-1.78-2.17C338.39,679.65,338.37,677.2,338.37,674.74Z" transform="translate(-167.4 -496.93)"/><path class="cls-3" d="M332.22,706.15a20.11,20.11,0,0,1-2.33,0,1.55,1.55,0,0,1-1.49-1.7,1.49,1.49,0,0,1,1.41-1.58,23.09,23.09,0,0,1,5.19,0,1.47,1.47,0,0,1,1.31,1.66,1.5,1.5,0,0,1-1.4,1.59,26.8,26.8,0,0,1-2.69,0Z" transform="translate(-167.4 -496.93)"/><path class="cls-5" d="M786,664.24c-20.42.07-34.32,14.52-34.46,35.71-.21,21.95,13.41,36.33,34.53,36.47s35-14.1,35-36C821.1,678.83,806.86,664.1,786,664.24Zm13,48.28c-2.64,5.77-7,9-13.48,8.69-6-.28-10.07-3.55-12.15-9.11A32.49,32.49,0,0,1,772,693.35c1.66-7.85,5.62-13.62,14.52-13.83,7.85-.14,13.06,5.7,14.1,15.15.21,1.87.14,3.75.21,5.07C800.75,704.46,800.82,708.63,799,712.52Z" transform="translate(-167.4 -496.93)"/><path class="cls-5" d="M720.16,668.13c-10.07-2.71-20.21-2.08-30.35-.14-5.91,1.11-8.62,4.31-8.41,10.63.35,14.38.49,28.83-.07,43.14-.42,9.52,4.24,13.48,12.64,14.66,3.48.49,6.95.62,10.91,1,3.75-.35,7.92-.35,12-1,16.18-2.78,26.33-14.94,27.16-32.37C745,685.85,736.21,672.51,720.16,668.13Zm3.41,37.79c-.84,7.92-3.75,14.24-12.58,15.7-6.11,1-10.76.42-9.72-7.85.55-4,.07-8.26.07-12.36,0-3.55,0-7,.07-10.56,0-9.8,2.64-11.67,11.88-8.27C721.21,685.5,724.89,693.83,723.57,705.92Z" transform="translate(-167.4 -496.93)"/><path class="cls-5" d="M963.93,725.44c-4.17-15.07-9-29.94-12.78-45.15-2.37-9.73-8.48-12.71-18.41-12.65-5.21.91-11.88.28-14.38,8.41-5,16.19-10.56,32.16-15.63,48.28-1.81,5.63-1.88,11.12,5.83,12.37,6.32,1,12.3,1.52,13.41-7.51.42-2.91,0-7.71,5.49-7.36,7.5.42,16.53-3.47,18.89,9.45,1.39,7.85,9.31,6.46,15.22,5C968.72,734.47,965,729.33,963.93,725.44Zm-26.26-19.38a11.54,11.54,0,0,1-8.34,0c-3.75-1.81-.48-5,0-7.36.84-4,2.57-7.71,4.66-13.76,1.8,6,3.26,9.87,4.1,13.83C938.57,701.2,941.35,704.53,937.67,706.06Z" transform="translate(-167.4 -496.93)"/><path class="cls-5" d="M873.42,704c0-9.94.42-19.88,0-29.8-.26-5.91,2.3-8.21,7.61-8.4,5.56-.21,11,.93,11.09,7.69.35,18.58.16,37.17.13,55.75,0,4.24-3.17,5.21-6.5,5.55-7.08.74-14.43,1.7-18.49-6.23-5.38-10.52-10.52-21.16-17-34.32,0,12.68-.22,22.9.09,33.1.15,5-.79,8.05-6.54,7.91-5.21-.13-11.54.46-11.75-6.61-.55-18.56-.46-37.16-.11-55.73.1-5,5-6.43,9.18-6.91,6.3-.73,12.45.14,15.65,6.64,5.09,10.32,9.85,20.81,14.74,31.23C872.07,704.56,872.67,705.47,873.42,704Z" transform="translate(-167.4 -496.93)"/><path class="cls-5" d="M1079,664.17c-20.49.21-34.32,14.52-34.39,35.78-.14,22,13.48,36.4,34.53,36.47s34.73-14,34.73-36.06C1113.84,678.62,1099.81,664,1079,664.17Zm13,48.21c-2,5.42-6.25,8.76-12.37,8.83-6.53.13-11-3.13-13.2-9a32.24,32.24,0,0,1-.06-23.34c2.08-5.83,6.66-9.38,13.12-9.31s10.91,3.55,12.93,9.52c1.18,3.54,1.45,7.43,2.22,11.53C1093.83,704.39,1093.42,708.63,1092,712.38Z" transform="translate(-167.4 -496.93)"/><path class="cls-5" d="M1012.21,667.71c-9.52-2.08-19-1.59-28.55.14-5.7,1-8.76,3.75-8.55,10.35.49,14.38.77,28.83,0,43.14-.55,10,4,14.11,12.92,15.15,3.48.35,7,.55,10.7.83,3.61-.28,7.5-.28,11.26-.9,16.74-2.71,26.74-14.87,27.37-33C1038.05,684.59,1028.81,671.47,1012.21,667.71Zm5.42,36.2c-.77,11.11-5.77,17.16-14.8,18-5.56.49-9.38-.28-8.4-7.43.55-4.1.06-8.27.06-12.44s.42-8.33-.06-12.43c-1.12-9,3.82-9.24,10.35-7.58C1013.53,684.25,1018.39,692.44,1017.63,703.91Z" transform="translate(-167.4 -496.93)"/><path class="cls-5" d="M625.28,698.26c0-7.68.38-15.38-.13-23-.42-6.39,1.63-9.5,8.26-9.59,6.8-.09,11.28,2.17,11.33,9.67.07,11.83.42,23.68-.09,35.49-.3,6.91,1.34,10.32,8.89,9.24,3.45-.49,7.05.14,10.54-.13,5.41-.42,7.56,2.13,7.64,7.26s-2,8-7.23,8c-9.59,0-19.19.09-28.78,0-7.1-.1-10.38-4.12-10.42-11C625.25,715.53,625.28,706.9,625.28,698.26Z" transform="translate(-167.4 -496.93)"/><path class="cls-5" d="M614.29,725.58c-4.17-15.07-8.89-29.94-12.78-45.08-2.36-9.52-8.34-13-19-12.86-4.24,1.46-11.33-.27-13.83,8.27-4.86,16.19-10.42,32.17-15.7,48.21-1.87,5.84-2,11,5.56,12.51,6.25,1.18,12.29,1.66,13.68-7.16.42-2.78-.41-7.15,4.24-7.5,5.07-.28,10.35-.7,15.29.21,4.16.76,2.91,5.83,4.23,8.89,3.34,7.5,9.45,6.67,15.49,5.28C618.6,734.75,615.4,729.54,614.29,725.58ZM588,706.13a12.91,12.91,0,0,1-8.4-.07c-3.13-1.39-.84-4.51-.28-6.74,1-3.89,2.64-7.71,4.31-12.57,3.61,4.31,3.82,8.89,4.86,13.06C588.94,701.75,591.92,705,588,706.13Z" transform="translate(-167.4 -496.93)"/><path class="cls-5" d="M998.31,635.26c-7.24.17-14.34-.6-20.25-5.17-3.75-2.89-4.89-6.9-2.28-11.31s6-4,9.78-1.37a13.08,13.08,0,0,0,5,1.87c5.85,1.14,13.82,3.75,16-3.1s-6.72-6.15-10.93-8.41c-3.42-1.84-7.23-2.9-10.79-4.49-6.88-3.1-10.24-8.91-10.5-16.06-.27-7.67,3.29-13.94,10.25-17.39,10.72-5.3,22-5.32,33.05-1.23,5.25,1.93,8.26,5.9,6.11,11.74-2.24,6.12-6.56,3.43-10.55,2a16.25,16.25,0,0,0-5.23-.87c-4.49-.05-11.13-1.85-12.31,3.18-1.42,6.06,6.07,5.05,9.74,7a7.07,7.07,0,0,0,1,.4c16.94,6,23.66,14.14,21.33,25.93C1025.44,629.39,1015.34,635.32,998.31,635.26Z" transform="translate(-167.4 -496.93)"/><path class="cls-5" d="M543.23,599.22c-.55-37.64-.48-33.72,33.06-33.45,5.9,0,16.18-4.8,16.18,7.17,0,12.23-10.44,7.21-17,8.23-2.77.44-5.66.11-8.49.15-3.34.06-4,2.18-4,5,0,3,1,4.75,4.2,4.77,5,0,9.93.2,14.88,0s7.06,2,7.2,6.89c.15,5.08-1.59,8.36-6.91,8.71-4.24.27-8.51.21-12.76.1-4-.11-6.67.51-6.77,5.61-.11,5.33,2.19,6.74,7,6.5,5-.24,9.93.16,14.88-.1,5.13-.27,8.25,1.48,8.47,6.93.19,5-1.9,8.53-7.14,8.64-11,.23-22,.32-32.94-.1-7-.27-9.6-5.5-9.85-11.71C543,614.81,543.23,607,543.23,599.22Z" transform="translate(-167.4 -496.93)"/><path class="cls-5" d="M417.91,598.31c0,9-.29,18.07.11,27.08.24,5.54-1.12,9-7.22,9.05-5.09,0-11,0-11.23-6.76-.57-18.43-.64-36.88-.39-55.32.08-5.58,5.7-6,9.67-6.43,6.65-.77,12.73.76,16.11,7.56,5.17,10.4,10.38,20.77,16.55,33.1,0-12.05.19-22.05-.08-32-.13-4.82.5-8.57,6.24-8.81,5.53-.24,11.89,0,12.17,7.08.72,18.42.65,36.87.57,55.31,0,5.3-5,5.58-8.68,6-7,.88-13.59-.07-17.26-7.33-4.86-9.64-9.66-19.3-14.49-29Z" transform="translate(-167.4 -496.93)"/><path class="cls-5" d="M796.79,563.51c-20.84.07-35.15,14.66-35.22,35.85-.14,21.6,13.61,35.77,34.73,35.91,21.88.14,36-14,35.92-36C832.15,578.38,817.35,563.44,796.79,563.51Zm7,54.88c-6.74,3.82-13.06,2.57-18-3.4-5.63-6.88-5.42-24.46.35-31,5.21-5.84,11.81-6.6,18.13-2.78,6.88,4.16,7.5,11.46,7.09,18.75C811.72,607.28,810.89,614.29,803.8,618.39Z" transform="translate(-167.4 -496.93)"/><path class="cls-5" d="M751.15,601.29c0,7.78-.18,15.57.08,23.34.17,5.4.06,10-7.21,9.92-6.44-.08-12.38-.72-12.68-9.11q-.44-12.18-.56-24.36c-.1-8.49.5-17-.18-25.46-.63-7.9,3.48-10,9.95-10,6.71,0,10.69,2.94,10.62,10.19C751.08,584.31,751.15,592.8,751.15,601.29Z" transform="translate(-167.4 -496.93)"/><path class="cls-5" d="M691.65,635.25c-6.11.21-12.07-.55-17.57-3.4-5-2.58-7.76-6.53-5.41-12.18,2.53-6.08,6.74-4.58,11.1-1.85a12.93,12.93,0,0,0,5,1.75c5.49.75,13.08,3.23,15-3.35,2.12-7.31-6.76-6.15-10.89-8.48-3.35-1.9-7.21-2.89-10.73-4.52-6.8-3.12-10.15-8.67-10.38-16-.24-7.82,3.2-13.88,10.13-17.36,10.71-5.36,21.9-5.25,33-1.3,5.34,1.9,8.11,6,6.1,11.73-2.18,6.27-6.5,3.6-10.43,2a6.46,6.46,0,0,0-2.08-.45c-5.46-.21-13.62-3.16-15.21,2.89-1.85,7,7.51,5.09,11.59,7.69,2.64,1.68,5.91,2.36,8.7,3.86,7.84,4.17,12.5,10.39,11.66,19.71s-6.49,14.48-14.89,17.42C701.55,635.07,696.63,635.31,691.65,635.25Z" transform="translate(-167.4 -496.93)"/><path class="cls-5" d="M655.35,619a16.76,16.76,0,0,0-2.64-3.27c-3.75-4-5.63-7.08.07-11.81,7.36-6.11,8.2-14.66,4.58-23.41C652.22,568,635.9,563.44,614,567c-14.66,2.37-9.45,13.27-10.29,21.54-.41,3.89-.07,7.78-.07,11.74H604c0,8.48.07,17,0,25.56,0,5.21,2.92,7.58,7.71,8.48,9.1,1.81,11.19-.76,11.74-13.55.14-2.57-1.59-6.18,2.36-7.22,3.41-.83,4.94,1.94,6.53,4.38,2.71,4.16,5.22,8.54,8.55,12.15,5,5.56,11.25,6.18,17,1.25C664.17,626.1,657.5,622.84,655.35,619ZM629,597.62c-7.43.42-5.07-4.93-5.56-8.54-.55-4.94.07-8.62,6.46-7.85,5.21.55,9.1,2.29,9,8.19C638.88,596,634.58,597.34,629,597.62Z" transform="translate(-167.4 -496.93)"/><path class="cls-5" d="M916.74,600.67c0-7.79-.16-15.59,0-23.37s4.73-11.54,12.25-11.66c9.92-.16,19.85.12,29.77-.14,5.21-.14,6.93,2.68,7.23,7.06s-1.44,7.75-6.17,8.39c-3.14.42-6.52-.37-9.51.42-4.7,1.25-13.22-4.34-13.53,4.57-.32,9.24,8.42,3.7,13,5.13,1.61.51,3.52.2,5.29.07,5.48-.4,7.6,2.16,7.59,7.55s-2.5,7.87-7.6,8.08c-3.54.14-7.08.13-10.63.05-4.44-.09-8.37-.39-8.25,6.29.13,7,4.72,5.66,8.75,5.75,4.6.1,9.22.22,13.82,0,4.8-.24,7.4,1.75,7.75,6.53s-1.46,8.83-6.71,9c-11.33.32-22.68.34-34-.18-6.48-.3-8.87-5.42-9.12-11.18-.32-7.43-.08-14.87-.08-22.31Z" transform="translate(-167.4 -496.93)"/><path class="cls-5" d="M503.54,615.53c3.16-12.59,6.59-24.82,9.22-37.23,1.73-8.17,6-11.73,14.12-10.17,9.28,1.78,8.09,8.71,6.44,15a293.73,293.73,0,0,1-16.23,44.92c-3.18,7.16-9.11,8.51-15.67,8.5s-11.33-2.83-14-9.32a480.51,480.51,0,0,1-16.76-45.9c-1.56-5.18-3.68-10.42,4.24-12.6,7.33-2,12.66-.35,15,7.33,3.32,10.84,6.48,21.73,9.71,32.6C500.3,611,500.75,613.52,503.54,615.53Z" transform="translate(-167.4 -496.93)"/><path class="cls-5" d="M885.88,567.07c14.64-3.09,17.48-1,17.55,13.33.07,13.48.09,27,0,40.45,0,5.36,2,11.9-6.67,13.08-7.81,1.08-15,.83-19.19-7.33-5.07-10-10-20-16.77-29.56,0,9.35-.18,18.71.07,28.06.14,5.13-.31,9.34-6.81,9.35-5.12,0-10.63-.08-11.36-6.76-2-18.38-1-36.85-.56-55.26.13-5.31,5.67-6,9.77-6.47,6.72-.85,12.83.68,16.2,7.39,4.61,9.17,9,18.44,13.55,27.66,5.29.52,2.87-3.53,3.05-5.6C885.51,586,883.49,576.44,885.88,567.07Z" transform="translate(-167.4 -496.93)"/><path d="M439.74,703.1c0,10.2,0,20.4,0,30.59,0,1.68-.49,2.28-2.13,2.58a58,58,0,0,1-19.57.54,10.94,10.94,0,0,1-9.6-9.89,45.9,45.9,0,0,1-.39-6.09c0-16.94.3-33.89-.15-50.81-.24-8.61,3.06-14.51,10.38-18.42,17.24-9.2,35.06-11.8,53.65-4.29a19.55,19.55,0,0,1,5.06,2.86c1.54,1.26,2.61,1,4.15.06,14-8.24,28.81-9.38,44-4.36,12.5,4.13,20.31,15.08,20.47,28.49.23,19.86.1,39.73.15,59.59,0,1.19-.12,2-1.55,2.24a57.41,57.41,0,0,1-19,.76c-7.14-1-10.77-5.15-10.85-12.44-.14-12-.07-23.94-.08-35.91,0-3.28,0-6.57,0-9.85-.12-7.87-5.56-12.31-13.4-11-.61.11-1.22.23-1.82.39-5.78,1.54-6.38,2.32-6.38,8.21,0,19,0,38,.08,56.92,0,2-.55,2.69-2.55,3.05a65.69,65.69,0,0,1-15.89.91c-8.79-.52-13-4.86-13.12-13.73-.12-7.18,0-14.37-.05-21.55s0-14.54,0-21.81c0-10-7.57-15.14-17-11.59-.41.16-.8.38-1.22.5-2.42.69-3.34,2.07-3.28,4.77.21,9.75.08,19.51.08,29.26Z" transform="translate(-167.4 -496.93)"/><path d="M389.45,591.68v39.39c0,1.17.26,2.34-1.51,2.65-6.17,1-12.37,1.82-18.62,1.12-8.3-.94-12.18-5.18-12.52-13.56-.14-3.3-.06-6.61-.06-9.92,0-22.21,0-44.43-.1-66.65,0-2.45.45-3.45,3.06-3.8,5.75-.76,11.44-1.45,17.26-.83,7.94.84,12.18,5,12.33,13,.21,11.48.12,23,.16,34.43Z" transform="translate(-167.4 -496.93)"/><path d="M373.11,531.44c-10.41,0-17.85-7.15-17.89-17.19S362.63,497,373,496.93c10.59-.06,18,7.09,18,17.35S383.6,531.44,373.11,531.44Z" transform="translate(-167.4 -496.93)"/></svg>